<?xml version="1.0" encoding="UTF-8" standalone="no"?>
<!DOCTYPE svg PUBLIC "-//W3C//DTD SVG 1.1//EN"
 "http://www.w3.org/Graphics/SVG/1.1/DTD/svg11.dtd">
<!-- Generated by graphviz version 13.1.2 (20250808.2320)
 -->
<!-- Title: G Pages: 1 -->
<svg width="148pt" height="67pt"
 viewBox="0.00 0.00 148.00 67.00" xmlns="http://www.w3.org/2000/svg" xmlns:xlink="http://www.w3.org/1999/xlink">
<g id="graph0" class="graph" transform="scale(1 1) rotate(0) translate(21.6 45.35)">
<title>G</title>
<polygon fill="#111111" stroke="none" points="-21.6,21.6 -21.6,-45.35 126.85,-45.35 126.85,21.6 -21.6,21.6"/>
<!-- models/User.js -->
<g id="node1" class="node">
<title>models/User.js</title>
<path fill="none" stroke="#cfffac" d="M97.33,-23.75C97.33,-23.75 7.92,-23.75 7.92,-23.75 3.96,-23.75 0,-19.79 0,-15.83 0,-15.83 0,-7.92 0,-7.92 0,-3.96 3.96,0 7.92,0 7.92,0 97.33,0 97.33,0 101.29,0 105.25,-3.96 105.25,-7.92 105.25,-7.92 105.25,-15.83 105.25,-15.83 105.25,-19.79 101.29,-23.75 97.33,-23.75"/>
<text xml:space="preserve" text-anchor="middle" x="52.62" y="-6.45" font-family="Arial" font-size="14.00" fill="#cfffac">models/User.js</text>
</g>
</g>
</svg>
