<?xml version="1.0" encoding="UTF-8" standalone="no"?>
<!DOCTYPE svg PUBLIC "-//W3C//DTD SVG 1.1//EN"
 "http://www.w3.org/Graphics/SVG/1.1/DTD/svg11.dtd">
<!-- Generated by graphviz version 13.1.2 (20250808.2320)
 -->
<!-- Title: G Pages: 1 -->
<svg width="826pt" height="350pt"
 viewBox="0.00 0.00 826.00 350.00" xmlns="http://www.w3.org/2000/svg" xmlns:xlink="http://www.w3.org/1999/xlink">
<g id="graph0" class="graph" transform="scale(1 1) rotate(0) translate(21.6 328.35)">
<title>G</title>
<polygon fill="#111111" stroke="none" points="-21.6,21.6 -21.6,-328.35 804.6,-328.35 804.6,21.6 -21.6,21.6"/>
<!-- app/providers.tsx -->
<g id="node1" class="node">
<title>app/providers.tsx</title>
<path fill="none" stroke="#c6c5fe" d="M179.08,-54.75C179.08,-54.75 76.17,-54.75 76.17,-54.75 72.21,-54.75 68.25,-50.79 68.25,-46.83 68.25,-46.83 68.25,-38.92 68.25,-38.92 68.25,-34.96 72.21,-31 76.17,-31 76.17,-31 179.08,-31 179.08,-31 183.04,-31 187,-34.96 187,-38.92 187,-38.92 187,-46.83 187,-46.83 187,-50.79 183.04,-54.75 179.08,-54.75"/>
<text xml:space="preserve" text-anchor="middle" x="127.62" y="-37.45" font-family="Arial" font-size="14.00" fill="#c6c5fe">app/providers.tsx</text>
</g>
<!-- src/app/registry.tsx -->
<g id="node2" class="node">
<title>src/app/registry.tsx</title>
<path fill="none" stroke="#c6c5fe" d="M472.21,-54.75C472.21,-54.75 359.54,-54.75 359.54,-54.75 355.58,-54.75 351.62,-50.79 351.62,-46.83 351.62,-46.83 351.62,-38.92 351.62,-38.92 351.62,-34.96 355.58,-31 359.54,-31 359.54,-31 472.21,-31 472.21,-31 476.17,-31 480.12,-34.96 480.12,-38.92 480.12,-38.92 480.12,-46.83 480.12,-46.83 480.12,-50.79 476.17,-54.75 472.21,-54.75"/>
<text xml:space="preserve" text-anchor="middle" x="415.88" y="-37.45" font-family="Arial" font-size="14.00" fill="#c6c5fe">src/app/registry.tsx</text>
</g>
<!-- app/providers.tsx&#45;&gt;src/app/registry.tsx -->
<g id="edge1" class="edge">
<title>app/providers.tsx&#45;&gt;src/app/registry.tsx</title>
<path fill="none" stroke="#757575" d="M187.24,-42.88C231.37,-42.88 292.18,-42.88 339.86,-42.88"/>
<polygon fill="#757575" stroke="#757575" points="339.85,-46.38 349.85,-42.88 339.85,-39.38 339.85,-46.38"/>
</g>
<!-- src/theme/theme.ts -->
<g id="node12" class="node">
<title>src/theme/theme.ts</title>
<path fill="none" stroke="#cfffac" d="M737.96,-65.75C737.96,-65.75 621.54,-65.75 621.54,-65.75 617.58,-65.75 613.62,-61.79 613.62,-57.83 613.62,-57.83 613.62,-49.92 613.62,-49.92 613.62,-45.96 617.58,-42 621.54,-42 621.54,-42 737.96,-42 737.96,-42 741.92,-42 745.88,-45.96 745.88,-49.92 745.88,-49.92 745.88,-57.83 745.88,-57.83 745.88,-61.79 741.92,-65.75 737.96,-65.75"/>
<text xml:space="preserve" text-anchor="middle" x="679.75" y="-48.45" font-family="Arial" font-size="14.00" fill="#cfffac">src/theme/theme.ts</text>
</g>
<!-- src/app/registry.tsx&#45;&gt;src/theme/theme.ts -->
<g id="edge10" class="edge">
<title>src/app/registry.tsx&#45;&gt;src/theme/theme.ts</title>
<path fill="none" stroke="#757575" d="M480.6,-45.55C517.26,-47.09 563.55,-49.04 602.17,-50.66"/>
<polygon fill="#757575" stroke="#757575" points="601.72,-54.14 611.86,-51.07 602.01,-47.15 601.72,-54.14"/>
</g>
<!-- src/utils/createEmotionCache.ts -->
<g id="node13" class="node">
<title>src/utils/createEmotionCache.ts</title>
<path fill="none" stroke="#cfffac" d="M775.08,-23.75C775.08,-23.75 584.42,-23.75 584.42,-23.75 580.46,-23.75 576.5,-19.79 576.5,-15.83 576.5,-15.83 576.5,-7.92 576.5,-7.92 576.5,-3.96 580.46,0 584.42,0 584.42,0 775.08,0 775.08,0 779.04,0 783,-3.96 783,-7.92 783,-7.92 783,-15.83 783,-15.83 783,-19.79 779.04,-23.75 775.08,-23.75"/>
<text xml:space="preserve" text-anchor="middle" x="679.75" y="-6.45" font-family="Arial" font-size="14.00" fill="#cfffac">src/utils/createEmotionCache.ts</text>
</g>
<!-- src/app/registry.tsx&#45;&gt;src/utils/createEmotionCache.ts -->
<g id="edge11" class="edge">
<title>src/app/registry.tsx&#45;&gt;src/utils/createEmotionCache.ts</title>
<path fill="none" stroke="#757575" d="M480.6,-35.33C505.93,-32.33 535.86,-28.79 564.68,-25.38"/>
<polygon fill="#757575" stroke="#757575" points="565.07,-28.86 574.59,-24.21 564.24,-21.91 565.07,-28.86"/>
</g>
<!-- components/ClientOnlyComponents.tsx -->
<g id="node3" class="node">
<title>components/ClientOnlyComponents.tsx</title>
<path fill="none" stroke="#c6c5fe" d="M247.33,-138.75C247.33,-138.75 7.92,-138.75 7.92,-138.75 3.96,-138.75 0,-134.79 0,-130.83 0,-130.83 0,-122.92 0,-122.92 0,-118.96 3.96,-115 7.92,-115 7.92,-115 247.33,-115 247.33,-115 251.29,-115 255.25,-118.96 255.25,-122.92 255.25,-122.92 255.25,-130.83 255.25,-130.83 255.25,-134.79 251.29,-138.75 247.33,-138.75"/>
<text xml:space="preserve" text-anchor="middle" x="127.62" y="-121.45" font-family="Arial" font-size="14.00" fill="#c6c5fe">components/ClientOnlyComponents.tsx</text>
</g>
<!-- components/InstallPrompt.tsx -->
<g id="node4" class="node">
<title>components/InstallPrompt.tsx</title>
<path fill="none" stroke="#cfffac" d="M505.21,-180.75C505.21,-180.75 326.54,-180.75 326.54,-180.75 322.58,-180.75 318.62,-176.79 318.62,-172.83 318.62,-172.83 318.62,-164.92 318.62,-164.92 318.62,-160.96 322.58,-157 326.54,-157 326.54,-157 505.21,-157 505.21,-157 509.17,-157 513.12,-160.96 513.12,-164.92 513.12,-164.92 513.12,-172.83 513.12,-172.83 513.12,-176.79 509.17,-180.75 505.21,-180.75"/>
<text xml:space="preserve" text-anchor="middle" x="415.88" y="-163.45" font-family="Arial" font-size="14.00" fill="#cfffac">components/InstallPrompt.tsx</text>
</g>
<!-- components/ClientOnlyComponents.tsx&#45;&gt;components/InstallPrompt.tsx -->
<g id="edge2" class="edge">
<title>components/ClientOnlyComponents.tsx&#45;&gt;components/InstallPrompt.tsx</title>
<path fill="none" stroke="#757575" d="M212.96,-139.25C246.44,-144.16 285.12,-149.84 319.61,-154.9"/>
<polygon fill="#757575" stroke="#757575" points="318.75,-158.31 329.15,-156.3 319.76,-151.38 318.75,-158.31"/>
</g>
<!-- components/NotificationPermission.tsx -->
<g id="node5" class="node">
<title>components/NotificationPermission.tsx</title>
<path fill="none" stroke="#c6c5fe" d="M532.58,-138.75C532.58,-138.75 299.17,-138.75 299.17,-138.75 295.21,-138.75 291.25,-134.79 291.25,-130.83 291.25,-130.83 291.25,-122.92 291.25,-122.92 291.25,-118.96 295.21,-115 299.17,-115 299.17,-115 532.58,-115 532.58,-115 536.54,-115 540.5,-118.96 540.5,-122.92 540.5,-122.92 540.5,-130.83 540.5,-130.83 540.5,-134.79 536.54,-138.75 532.58,-138.75"/>
<text xml:space="preserve" text-anchor="middle" x="415.88" y="-121.45" font-family="Arial" font-size="14.00" fill="#c6c5fe">components/NotificationPermission.tsx</text>
</g>
<!-- components/ClientOnlyComponents.tsx&#45;&gt;components/NotificationPermission.tsx -->
<g id="edge3" class="edge">
<title>components/ClientOnlyComponents.tsx&#45;&gt;components/NotificationPermission.tsx</title>
<path fill="none" stroke="#757575" d="M255.43,-126.88C263.46,-126.88 271.56,-126.88 279.62,-126.88"/>
<polygon fill="#757575" stroke="#757575" points="279.48,-130.38 289.48,-126.88 279.48,-123.38 279.48,-130.38"/>
</g>
<!-- components/OfflineIndicator.tsx -->
<g id="node6" class="node">
<title>components/OfflineIndicator.tsx</title>
<path fill="none" stroke="#c6c5fe" d="M510.83,-96.75C510.83,-96.75 320.92,-96.75 320.92,-96.75 316.96,-96.75 313,-92.79 313,-88.83 313,-88.83 313,-80.92 313,-80.92 313,-76.96 316.96,-73 320.92,-73 320.92,-73 510.83,-73 510.83,-73 514.79,-73 518.75,-76.96 518.75,-80.92 518.75,-80.92 518.75,-88.83 518.75,-88.83 518.75,-92.79 514.79,-96.75 510.83,-96.75"/>
<text xml:space="preserve" text-anchor="middle" x="415.88" y="-79.45" font-family="Arial" font-size="14.00" fill="#c6c5fe">components/OfflineIndicator.tsx</text>
</g>
<!-- components/ClientOnlyComponents.tsx&#45;&gt;components/OfflineIndicator.tsx -->
<g id="edge4" class="edge">
<title>components/ClientOnlyComponents.tsx&#45;&gt;components/OfflineIndicator.tsx</title>
<path fill="none" stroke="#757575" d="M212.96,-114.5C246.44,-109.59 285.12,-103.91 319.61,-98.85"/>
<polygon fill="#757575" stroke="#757575" points="319.76,-102.37 329.15,-97.45 318.75,-95.44 319.76,-102.37"/>
</g>
<!-- hooks/usePWA.ts -->
<g id="node11" class="node">
<title>hooks/usePWA.ts</title>
<path fill="none" stroke="#cfffac" d="M733.08,-128.75C733.08,-128.75 626.42,-128.75 626.42,-128.75 622.46,-128.75 618.5,-124.79 618.5,-120.83 618.5,-120.83 618.5,-112.92 618.5,-112.92 618.5,-108.96 622.46,-105 626.42,-105 626.42,-105 733.08,-105 733.08,-105 737.04,-105 741,-108.96 741,-112.92 741,-112.92 741,-120.83 741,-120.83 741,-124.79 737.04,-128.75 733.08,-128.75"/>
<text xml:space="preserve" text-anchor="middle" x="679.75" y="-111.45" font-family="Arial" font-size="14.00" fill="#cfffac">hooks/usePWA.ts</text>
</g>
<!-- components/NotificationPermission.tsx&#45;&gt;hooks/usePWA.ts -->
<g id="edge8" class="edge">
<title>components/NotificationPermission.tsx&#45;&gt;hooks/usePWA.ts</title>
<path fill="none" stroke="#757575" d="M540.91,-122.14C563.45,-121.28 586.26,-120.41 606.67,-119.63"/>
<polygon fill="#757575" stroke="#757575" points="606.69,-123.13 616.55,-119.25 606.42,-116.13 606.69,-123.13"/>
</g>
<!-- components/OfflineIndicator.tsx&#45;&gt;hooks/usePWA.ts -->
<g id="edge9" class="edge">
<title>components/OfflineIndicator.tsx&#45;&gt;hooks/usePWA.ts</title>
<path fill="none" stroke="#757575" d="M518.12,-97.25C547.85,-100.88 579.73,-104.78 607.19,-108.13"/>
<polygon fill="#757575" stroke="#757575" points="606.42,-111.56 616.77,-109.3 607.27,-104.61 606.42,-111.56"/>
</g>
<!-- components/HashtagDashboard.tsx -->
<g id="node7" class="node">
<title>components/HashtagDashboard.tsx</title>
<path fill="none" stroke="#c6c5fe" d="M235.33,-264.75C235.33,-264.75 19.92,-264.75 19.92,-264.75 15.96,-264.75 12,-260.79 12,-256.83 12,-256.83 12,-248.92 12,-248.92 12,-244.96 15.96,-241 19.92,-241 19.92,-241 235.33,-241 235.33,-241 239.29,-241 243.25,-244.96 243.25,-248.92 243.25,-248.92 243.25,-256.83 243.25,-256.83 243.25,-260.79 239.29,-264.75 235.33,-264.75"/>
<text xml:space="preserve" text-anchor="middle" x="127.62" y="-247.45" font-family="Arial" font-size="14.00" fill="#c6c5fe">components/HashtagDashboard.tsx</text>
</g>
<!-- components/HashtagSearchBox.tsx -->
<g id="node8" class="node">
<title>components/HashtagSearchBox.tsx</title>
<path fill="none" stroke="#cfffac" d="M523.58,-306.75C523.58,-306.75 308.17,-306.75 308.17,-306.75 304.21,-306.75 300.25,-302.79 300.25,-298.83 300.25,-298.83 300.25,-290.92 300.25,-290.92 300.25,-286.96 304.21,-283 308.17,-283 308.17,-283 523.58,-283 523.58,-283 527.54,-283 531.5,-286.96 531.5,-290.92 531.5,-290.92 531.5,-298.83 531.5,-298.83 531.5,-302.79 527.54,-306.75 523.58,-306.75"/>
<text xml:space="preserve" text-anchor="middle" x="415.88" y="-289.45" font-family="Arial" font-size="14.00" fill="#cfffac">components/HashtagSearchBox.tsx</text>
</g>
<!-- components/HashtagDashboard.tsx&#45;&gt;components/HashtagSearchBox.tsx -->
<g id="edge5" class="edge">
<title>components/HashtagDashboard.tsx&#45;&gt;components/HashtagSearchBox.tsx</title>
<path fill="none" stroke="#757575" d="M212.96,-265.25C246.44,-270.16 285.12,-275.84 319.61,-280.9"/>
<polygon fill="#757575" stroke="#757575" points="318.75,-284.31 329.15,-282.3 319.76,-277.38 318.75,-284.31"/>
</g>
<!-- components/TagCloud.tsx -->
<g id="node9" class="node">
<title>components/TagCloud.tsx</title>
<path fill="none" stroke="#cfffac" d="M493.96,-264.75C493.96,-264.75 337.79,-264.75 337.79,-264.75 333.83,-264.75 329.88,-260.79 329.88,-256.83 329.88,-256.83 329.88,-248.92 329.88,-248.92 329.88,-244.96 333.83,-241 337.79,-241 337.79,-241 493.96,-241 493.96,-241 497.92,-241 501.88,-244.96 501.88,-248.92 501.88,-248.92 501.88,-256.83 501.88,-256.83 501.88,-260.79 497.92,-264.75 493.96,-264.75"/>
<text xml:space="preserve" text-anchor="middle" x="415.88" y="-247.45" font-family="Arial" font-size="14.00" fill="#cfffac">components/TagCloud.tsx</text>
</g>
<!-- components/HashtagDashboard.tsx&#45;&gt;components/TagCloud.tsx -->
<g id="edge6" class="edge">
<title>components/HashtagDashboard.tsx&#45;&gt;components/TagCloud.tsx</title>
<path fill="none" stroke="#757575" d="M243.4,-252.88C268.25,-252.88 294.27,-252.88 318.33,-252.88"/>
<polygon fill="#757575" stroke="#757575" points="318.09,-256.38 328.09,-252.88 318.09,-249.38 318.09,-256.38"/>
</g>
<!-- components/TrendingTags.tsx -->
<g id="node10" class="node">
<title>components/TrendingTags.tsx</title>
<path fill="none" stroke="#cfffac" d="M506.33,-222.75C506.33,-222.75 325.42,-222.75 325.42,-222.75 321.46,-222.75 317.5,-218.79 317.5,-214.83 317.5,-214.83 317.5,-206.92 317.5,-206.92 317.5,-202.96 321.46,-199 325.42,-199 325.42,-199 506.33,-199 506.33,-199 510.29,-199 514.25,-202.96 514.25,-206.92 514.25,-206.92 514.25,-214.83 514.25,-214.83 514.25,-218.79 510.29,-222.75 506.33,-222.75"/>
<text xml:space="preserve" text-anchor="middle" x="415.88" y="-205.45" font-family="Arial" font-size="14.00" fill="#cfffac">components/TrendingTags.tsx</text>
</g>
<!-- components/HashtagDashboard.tsx&#45;&gt;components/TrendingTags.tsx -->
<g id="edge7" class="edge">
<title>components/HashtagDashboard.tsx&#45;&gt;components/TrendingTags.tsx</title>
<path fill="none" stroke="#757575" d="M212.96,-240.5C246.44,-235.59 285.12,-229.91 319.61,-224.85"/>
<polygon fill="#757575" stroke="#757575" points="319.76,-228.37 329.15,-223.45 318.75,-221.44 319.76,-228.37"/>
</g>
</g>
</svg>
