<?xml version="1.0" encoding="UTF-8" standalone="no"?>
<!DOCTYPE svg PUBLIC "-//W3C//DTD SVG 1.1//EN"
 "http://www.w3.org/Graphics/SVG/1.1/DTD/svg11.dtd">
<!-- Generated by graphviz version 13.1.2 (20250808.2320)
 -->
<!-- Title: G Pages: 1 -->
<svg width="398pt" height="151pt"
 viewBox="0.00 0.00 398.00 151.00" xmlns="http://www.w3.org/2000/svg" xmlns:xlink="http://www.w3.org/1999/xlink">
<g id="graph0" class="graph" transform="scale(1 1) rotate(0) translate(21.6 129.35)">
<title>G</title>
<polygon fill="#111111" stroke="none" points="-21.6,21.6 -21.6,-129.35 376.1,-129.35 376.1,21.6 -21.6,21.6"/>
<!-- app/api/auth/register/route.ts -->
<g id="node1" class="node">
<title>app/api/auth/register/route.ts</title>
<path fill="none" stroke="#c6c5fe" d="M192.21,-65.75C192.21,-65.75 20.29,-65.75 20.29,-65.75 16.33,-65.75 12.38,-61.79 12.38,-57.83 12.38,-57.83 12.38,-49.92 12.38,-49.92 12.38,-45.96 16.33,-42 20.29,-42 20.29,-42 192.21,-42 192.21,-42 196.17,-42 200.12,-45.96 200.12,-49.92 200.12,-49.92 200.12,-57.83 200.12,-57.83 200.12,-61.79 196.17,-65.75 192.21,-65.75"/>
<text xml:space="preserve" text-anchor="middle" x="106.25" y="-48.45" font-family="Arial" font-size="14.00" fill="#c6c5fe">app/api/auth/register/route.ts</text>
</g>
<!-- lib/email.ts -->
<g id="node2" class="node">
<title>lib/email.ts</title>
<path fill="none" stroke="#cfffac" d="M333.83,-107.75C333.83,-107.75 269.17,-107.75 269.17,-107.75 265.21,-107.75 261.25,-103.79 261.25,-99.83 261.25,-99.83 261.25,-91.92 261.25,-91.92 261.25,-87.96 265.21,-84 269.17,-84 269.17,-84 333.83,-84 333.83,-84 337.79,-84 341.75,-87.96 341.75,-91.92 341.75,-91.92 341.75,-99.83 341.75,-99.83 341.75,-103.79 337.79,-107.75 333.83,-107.75"/>
<text xml:space="preserve" text-anchor="middle" x="301.5" y="-90.45" font-family="Arial" font-size="14.00" fill="#cfffac">lib/email.ts</text>
</g>
<!-- app/api/auth/register/route.ts&#45;&gt;lib/email.ts -->
<g id="edge1" class="edge">
<title>app/api/auth/register/route.ts&#45;&gt;lib/email.ts</title>
<path fill="none" stroke="#757575" d="M164.19,-66.25C191.24,-72.13 223.33,-79.1 249.57,-84.81"/>
<polygon fill="#757575" stroke="#757575" points="248.81,-88.22 259.32,-86.93 250.29,-81.38 248.81,-88.22"/>
</g>
<!-- lib/mongodb.ts -->
<g id="node3" class="node">
<title>lib/mongodb.ts</title>
<path fill="none" stroke="#cfffac" d="M345.83,-23.75C345.83,-23.75 257.17,-23.75 257.17,-23.75 253.21,-23.75 249.25,-19.79 249.25,-15.83 249.25,-15.83 249.25,-7.92 249.25,-7.92 249.25,-3.96 253.21,0 257.17,0 257.17,0 345.83,0 345.83,0 349.79,0 353.75,-3.96 353.75,-7.92 353.75,-7.92 353.75,-15.83 353.75,-15.83 353.75,-19.79 349.79,-23.75 345.83,-23.75"/>
<text xml:space="preserve" text-anchor="middle" x="301.5" y="-6.45" font-family="Arial" font-size="14.00" fill="#cfffac">lib/mongodb.ts</text>
</g>
<!-- app/api/auth/register/route.ts&#45;&gt;lib/mongodb.ts -->
<g id="edge2" class="edge">
<title>app/api/auth/register/route.ts&#45;&gt;lib/mongodb.ts</title>
<path fill="none" stroke="#757575" d="M171.06,-41.54C184.75,-38.78 199.12,-35.8 212.5,-32.88 221.13,-30.98 230.22,-28.91 239.14,-26.83"/>
<polygon fill="#757575" stroke="#757575" points="239.91,-30.24 248.84,-24.54 238.31,-23.43 239.91,-30.24"/>
</g>
<!-- models/User.ts -->
<g id="node4" class="node">
<title>models/User.ts</title>
<path fill="none" stroke="#cfffac" d="M346.58,-65.75C346.58,-65.75 256.42,-65.75 256.42,-65.75 252.46,-65.75 248.5,-61.79 248.5,-57.83 248.5,-57.83 248.5,-49.92 248.5,-49.92 248.5,-45.96 252.46,-42 256.42,-42 256.42,-42 346.58,-42 346.58,-42 350.54,-42 354.5,-45.96 354.5,-49.92 354.5,-49.92 354.5,-57.83 354.5,-57.83 354.5,-61.79 350.54,-65.75 346.58,-65.75"/>
<text xml:space="preserve" text-anchor="middle" x="301.5" y="-48.45" font-family="Arial" font-size="14.00" fill="#cfffac">models/User.ts</text>
</g>
<!-- app/api/auth/register/route.ts&#45;&gt;models/User.ts -->
<g id="edge3" class="edge">
<title>app/api/auth/register/route.ts&#45;&gt;models/User.ts</title>
<path fill="none" stroke="#757575" d="M200.48,-53.88C212.78,-53.88 225.16,-53.88 236.82,-53.88"/>
<polygon fill="#757575" stroke="#757575" points="236.69,-57.38 246.69,-53.88 236.69,-50.38 236.69,-57.38"/>
</g>
<!-- app/api/auth/verify&#45;email/route.ts -->
<g id="node5" class="node">
<title>app/api/auth/verify&#45;email/route.ts</title>
<path fill="none" stroke="#c6c5fe" d="M204.58,-23.75C204.58,-23.75 7.92,-23.75 7.92,-23.75 3.96,-23.75 0,-19.79 0,-15.83 0,-15.83 0,-7.92 0,-7.92 0,-3.96 3.96,0 7.92,0 7.92,0 204.58,0 204.58,0 208.54,0 212.5,-3.96 212.5,-7.92 212.5,-7.92 212.5,-15.83 212.5,-15.83 212.5,-19.79 208.54,-23.75 204.58,-23.75"/>
<text xml:space="preserve" text-anchor="middle" x="106.25" y="-6.45" font-family="Arial" font-size="14.00" fill="#c6c5fe">app/api/auth/verify&#45;email/route.ts</text>
</g>
<!-- app/api/auth/verify&#45;email/route.ts&#45;&gt;lib/mongodb.ts -->
<g id="edge4" class="edge">
<title>app/api/auth/verify&#45;email/route.ts&#45;&gt;lib/mongodb.ts</title>
<path fill="none" stroke="#757575" d="M212.92,-11.88C221.33,-11.88 229.64,-11.88 237.61,-11.88"/>
<polygon fill="#757575" stroke="#757575" points="237.48,-15.38 247.48,-11.88 237.48,-8.38 237.48,-15.38"/>
</g>
<!-- app/api/auth/verify&#45;email/route.ts&#45;&gt;models/User.ts -->
<g id="edge5" class="edge">
<title>app/api/auth/verify&#45;email/route.ts&#45;&gt;models/User.ts</title>
<path fill="none" stroke="#757575" d="M171.06,-24.21C184.75,-26.97 199.12,-29.95 212.5,-32.88 221.13,-34.77 230.22,-36.84 239.14,-38.92"/>
<polygon fill="#757575" stroke="#757575" points="238.31,-42.32 248.84,-41.21 239.91,-35.51 238.31,-42.32"/>
</g>
</g>
</svg>
